<?xml version="1.0" encoding="UTF-8"?>
<svg version="1.1" xmlns="http://www.w3.org/2000/svg" width="500" height="500">
<path d="M0 0 C165 0 330 0 500 0 C500 165 500 330 500 500 C335 500 170 500 0 500 C0 335 0 170 0 0 Z " fill="#FEFEFE" transform="translate(0,0)"/>
<path d="M0 0 C35.52182952 0 35.52182952 0 43.05859375 6.87890625 C43.74115234 7.71228516 43.74115234 7.71228516 44.4375 8.5625 C44.91058594 9.12066406 45.38367188 9.67882812 45.87109375 10.25390625 C48.98258658 15.06649205 48.77850909 21.51336451 48 27 C45.44371797 32.83787591 41.71317762 37.08263271 36 40 C34.34046072 40.36717608 32.67412189 40.70639346 31 41 C32.33231641 43.22977955 33.66586659 45.45880784 35 47.6875 C35.40210693 48.36071289 35.80421387 49.03392578 36.21850586 49.72753906 C38.23921492 53.10158882 40.27764251 56.46057209 42.37890625 59.78515625 C42.74693359 60.37014893 43.11496094 60.9551416 43.49414062 61.55786133 C44.51322406 63.17195348 45.53963323 64.78141349 46.56640625 66.390625 C48 69 48 69 48 72 C44.37 72 40.74 72 37 72 C36.34773438 70.81664062 35.69546875 69.63328125 35.0234375 68.4140625 C34.1410566 66.81746973 33.25821402 65.22113205 32.375 63.625 C31.9207666 62.80386719 31.4665332 61.98273438 30.99853516 61.13671875 C28.10608503 55.92969158 25.13114912 50.79431463 21.9609375 45.75 C21 44 21 44 21 42 C17.04 42 13.08 42 9 42 C9 51.9 9 61.8 9 72 C6.03 72 3.06 72 0 72 C0 48.24 0 24.48 0 0 Z " fill="#09093B" transform="translate(117,215)"/>
<path d="M0 0 C5.12679562 3.66080014 8.93797018 7.68583855 11.578125 13.45703125 C11.578125 14.11703125 11.578125 14.77703125 11.578125 15.45703125 C7.77231016 16.02370589 4.36703741 16.20879959 0.578125 15.45703125 C-1.87564844 13.40093833 -3.6481505 11.17476928 -5.62109375 8.66015625 C-9.21279043 4.26597636 -12.48520862 3.66926866 -17.84375 3.08203125 C-26.56306589 2.66182326 -32.7618303 3.60699199 -39.421875 9.45703125 C-45.77314406 16.18456032 -46.92260359 23.84620086 -46.92163086 32.83911133 C-46.71323897 39.98979828 -44.87563918 45.74754046 -40.421875 51.45703125 C-33.50107199 57.48520137 -28.09488812 58.82841739 -19.0390625 58.7265625 C-14.14257005 58.36170507 -10.39902435 57.38164209 -6.421875 54.45703125 C-5.26012559 53.07034175 -4.13556576 51.65178793 -3.046875 50.20703125 C-0.892604 47.45689806 -0.03200296 46.5663079 3.45703125 45.94140625 C6.20730427 45.95545618 8.85216418 46.10211411 11.578125 46.45703125 C8.01577007 55.64171158 2.81568368 60.41924722 -5.546875 65.26953125 C-14.36643953 68.91239486 -26.45604913 69.02064095 -35.33203125 65.5 C-45.79804259 60.27677565 -52.24461121 53.24132754 -56.671875 42.39453125 C-59.19696941 32.29415362 -58.01669816 21.24351983 -53.16796875 12.08984375 C-48.42835702 4.41864657 -42.1243427 -1.80725661 -33.5234375 -4.8828125 C-21.7492708 -7.38890088 -10.21421357 -6.50744252 0 0 Z " fill="#0A093B" transform="translate(233.421875,219.54296875)"/>
<path d="M0 0 C4.44303548 3.69050279 8.38201945 6.98584314 9.12109375 12.8984375 C8.97671875 13.7234375 8.83234375 14.5484375 8.68359375 15.3984375 C5.38359375 15.3984375 2.08359375 15.3984375 -1.31640625 15.3984375 C-1.56390625 14.4496875 -1.81140625 13.5009375 -2.06640625 12.5234375 C-2.99549519 9.33602409 -2.99549519 9.33602409 -5.31640625 8.0859375 C-5.97640625 7.8590625 -6.63640625 7.6321875 -7.31640625 7.3984375 C-7.97640625 7.0684375 -8.63640625 6.7384375 -9.31640625 6.3984375 C-11.25000211 6.24991906 -13.18982722 6.17712917 -15.12890625 6.1484375 C-16.16660156 6.12265625 -17.20429688 6.096875 -18.2734375 6.0703125 C-21.71500839 6.44141899 -23.55180698 7.35352745 -26.31640625 9.3984375 C-28.05707344 12.87977188 -27.75251958 16.59235754 -27.31640625 20.3984375 C-25.30789506 24.70239005 -22.57854594 25.86186633 -18.31640625 27.4609375 C-15.2960996 28.47308299 -12.26352884 29.41420095 -9.2109375 30.32421875 C-1.4480184 32.71507977 5.05759164 35.45943434 9.68359375 42.3984375 C10.57370742 49.77232656 10.79967242 56.75069153 6.171875 62.8515625 C1.49928544 67.70811228 -3.96895311 70.0573463 -10.61328125 70.734375 C-18.99266533 70.82916441 -26.6401618 70.50963575 -33.19140625 64.75 C-37.23031747 60.30331409 -39.31640625 56.50204779 -39.31640625 50.3984375 C-35.68640625 50.3984375 -32.05640625 50.3984375 -28.31640625 50.3984375 C-28.08953125 51.2853125 -27.86265625 52.1721875 -27.62890625 53.0859375 C-25.99417368 57.21169114 -25.04604975 58.9120085 -21.31640625 61.3984375 C-14.64108019 62.30676171 -8.90430116 62.48304033 -3.31640625 58.3984375 C-0.40816517 54.68792302 0.08025549 52.059213 -0.31640625 47.3984375 C-0.37828125 46.6559375 -0.44015625 45.9134375 -0.50390625 45.1484375 C-1.19600079 43.15799772 -1.19600079 43.15799772 -3.56274414 42.38818359 C-6.09229379 41.47899002 -8.62428983 40.62140162 -11.1875 39.8125 C-12.09177734 39.52117187 -12.99605469 39.22984375 -13.92773438 38.9296875 C-15.80604473 38.32738204 -17.68626035 37.730985 -19.56835938 37.140625 C-27.18610691 34.66824573 -32.5453723 32.11322603 -37.31640625 25.3984375 C-39.55708131 20.91708737 -38.91197523 15.24807059 -38.31640625 10.3984375 C-35.82270822 4.88468996 -31.59142669 1.26529644 -26.31640625 -1.6015625 C-18.88392408 -4.13614167 -6.70445788 -4.21081765 0 0 Z " fill="#0C0B3C" transform="translate(296.31640625,216.6015625)"/>
<path d="M0 0 C3.87169696 2.2102207 5.95282191 4.18158446 7.75 8.375 C8.48936088 13.98181999 8.52647967 18.70258226 6.125 23.875 C1.75562265 28.47434457 -1.34477633 30.61427176 -7.75 30.875 C-12.64957754 30.68860303 -15.52541458 29.72712688 -19.25 26.375 C-23.18888692 21.89281833 -23.60776645 17.7302787 -23.5234375 11.9453125 C-23.02984567 7.30554926 -21.3343703 4.15331086 -17.70703125 1.05859375 C-11.94414523 -2.72618494 -6.18152382 -2.72950402 0 0 Z " fill="#FCFCFC" transform="translate(400.25,257.625)"/>
<path d="M0 0 C3.135 -0.12375 6.27 -0.2475 9.5 -0.375 C10.95696289 -0.45693604 10.95696289 -0.45693604 12.44335938 -0.54052734 C18.52057125 -0.65549494 21.85172899 0.61272545 26.52148438 4.50537109 C29.13274317 7.14508813 29.18521931 9.21177304 29.25 12.8125 C29.17754137 18.40791607 27.81654299 21.01498729 24.0625 25.1171875 C19.51774837 27.91128225 15.40124528 27.43068028 10.1875 27.25 C6.825625 27.1675 3.46375 27.085 0 27 C0 18.09 0 9.18 0 0 Z " fill="#FAFAFB" transform="translate(126,222)"/>
<path d="M0 0 C13.66666667 0 13.66666667 0 18 3 C18.61875 3.4125 19.2375 3.825 19.875 4.25 C21.77518208 7.20583879 21.41138348 9.59139406 21 13 C19.1875 15.9375 19.1875 15.9375 17 18 C16.01 18 15.02 18 14 18 C14.42152344 18.75925781 14.84304688 19.51851563 15.27734375 20.30078125 C15.82519531 21.29464844 16.37304688 22.28851563 16.9375 23.3125 C17.48277344 24.29863281 18.02804687 25.28476562 18.58984375 26.30078125 C20 29 20 29 21 32 C18.71875 32.37109375 18.71875 32.37109375 16 32 C14.15625 29.41015625 14.15625 29.41015625 12.5 26.0625 C10.94865984 22.74614264 10.94865984 22.74614264 9 20 C7.35 19.67 5.7 19.34 4 19 C4 23.29 4 27.58 4 32 C2.68 32 1.36 32 0 32 C0 21.44 0 10.88 0 0 Z " fill="#ADADAD" transform="translate(351,256)"/>
<path d="M0 0 C14.73076923 0 14.73076923 0 19 3 C21.39286884 5.39286884 21.32050616 6.09447094 21.375 9.375 C21.30532098 12.70887324 21.19981611 13.72439157 19.1875 16.5 C15.85314652 18.78641381 13.24941227 19.1195567 9.3125 19.0625 C7.1778125 19.0315625 7.1778125 19.0315625 5 19 C5 23.29 5 27.58 5 32 C3.35 32 1.7 32 0 32 C0 21.44 0 10.88 0 0 Z " fill="#B2B2B2" transform="translate(444,256)"/>
<path d="M0 0 C4.29478681 1.75728968 7.29812476 3.68398392 9.5 7.8125 C9.7475 8.8953125 9.7475 8.8953125 10 10 C7.8125 10.3125 7.8125 10.3125 5 10 C4.2575 9.175 3.515 8.35 2.75 7.5 C-0.16050649 4.85408501 -0.77597482 4.55996814 -4.5 4.375 C-8.21946152 4.56717218 -8.94326084 4.95389943 -12 7.4375 C-12.99 8.7059375 -12.99 8.7059375 -14 10 C-14.33 10.33 -14.66 10.66 -15 11 C-15.55419529 15.90599112 -15.74119722 19.78937787 -13.125 24.0625 C-9.36935668 27.48676303 -6.34065072 27.33804064 -1.4140625 27.28125 C1.1635903 27.16844881 1.1635903 27.16844881 3.5 25.3125 C5.31781054 22.67354901 5.31781054 22.67354901 7 18 C2.71 18 -1.58 18 -6 18 C-6 17.01 -6 16.02 -6 15 C-0.39 15 5.22 15 11 15 C11 23.26315789 11 23.26315789 7 28 C3.33950082 31.39265778 0.43490734 32.31554237 -4.4375 32.5625 C-9.88258905 32.34765975 -13.28273989 30.99261272 -17 27 C-20.5813365 22.03233969 -20.71488702 16.91767589 -20 11 C-16.5879147 2.46978674 -8.7538459 -1.23862048 0 0 Z " fill="#ADADAD" transform="translate(334,256)"/>
<path d="M0 0 C1.65 0 3.3 0 5 0 C5 4.62 5 9.24 5 14 C9.95 14 14.9 14 20 14 C20 9.71 20 5.42 20 1 C21.65 0.67 23.3 0.34 25 0 C25 10.56 25 21.12 25 32 C23.68 32 22.36 32 21 32 C21 27.38 21 22.76 21 18 C15.72 18 10.44 18 5 18 C5 22.62 5 27.24 5 32 C3.35 32 1.7 32 0 32 C0 21.44 0 10.88 0 0 Z " fill="#B4B4B4" transform="translate(56,214)"/>
<path d="M0 0 C3.87169696 2.2102207 5.95282191 4.18158446 7.75 8.375 C8.48936088 13.98181999 8.52647967 18.70258226 6.125 23.875 C1.75562265 28.47434457 -1.34477633 30.61427176 -7.75 30.875 C-12.64957754 30.68860303 -15.52541458 29.72712688 -19.25 26.375 C-23.18888692 21.89281833 -23.60776645 17.7302787 -23.5234375 11.9453125 C-23.02984567 7.30554926 -21.3343703 4.15331086 -17.70703125 1.05859375 C-11.94414523 -2.72618494 -6.18152382 -2.72950402 0 0 Z M-18.25 7.375 C-19.97936108 10.83372216 -19.60079392 14.58642571 -19.25 18.375 C-17.98132436 21.98070972 -16.92651798 23.81123501 -14 26.25 C-10.44289634 27.70517877 -8.06807842 27.84388682 -4.25 27.375 C-0.9269142 25.68210723 1.13333723 24.35605441 3.125 21.1875 C4.14669332 16.58988005 5.0949179 11.77985319 2.69921875 7.49609375 C0.39250046 4.67223508 -1.52851081 2.61600849 -5.203125 2.1015625 C-11.39891906 1.82759882 -13.9643351 2.87505186 -18.25 7.375 Z " fill="#ACACAC" transform="translate(400.25,257.625)"/>
<path d="M0 0 C1.32 0 2.64 0 4 0 C4.01458252 0.70608398 4.02916504 1.41216797 4.04418945 2.13964844 C4.11873167 5.34364674 4.21537205 8.54661016 4.3125 11.75 C4.33505859 12.86117188 4.35761719 13.97234375 4.38085938 15.1171875 C4.41630859 16.18710937 4.45175781 17.25703125 4.48828125 18.359375 C4.51446533 19.34389648 4.54064941 20.32841797 4.56762695 21.34277344 C5.06604993 24.40592177 5.80555706 25.82112049 8 28 C12.58637685 28.61999634 12.58637685 28.61999634 16.68676758 26.83276367 C18.51979967 24.27456105 18.4323086 22.36704102 18.51171875 19.23828125 C18.54716797 18.12001953 18.58261719 17.00175781 18.61914062 15.84960938 C18.64169922 14.68236328 18.66425781 13.51511719 18.6875 12.3125 C18.72166016 11.13365234 18.75582031 9.95480469 18.79101562 8.74023438 C18.87357925 5.82691775 18.94270322 2.91390534 19 0 C20.65 0 22.3 0 24 0 C24.08756305 3.70818297 24.14058015 7.41609763 24.1875 11.125 C24.21263672 12.17171875 24.23777344 13.2184375 24.26367188 14.296875 C24.31729092 19.94474725 24.29232627 24.16489282 21 29 C17.23688216 32.42101622 13.27096545 32.56092009 8.37890625 32.4296875 C4.73240999 31.77104285 3.14444857 29.90538193 1 27 C-0.3308911 24.33821779 -0.11268993 22.31260604 -0.09765625 19.3359375 C-0.09443359 18.21445312 -0.09121094 17.09296875 -0.08789062 15.9375 C-0.07951172 14.761875 -0.07113281 13.58625 -0.0625 12.375 C-0.05798828 11.19164062 -0.05347656 10.00828125 -0.04882812 8.7890625 C-0.03701467 5.85932493 -0.02054258 2.92968728 0 0 Z " fill="#AFAFAF" transform="translate(414,256)"/>
<path d="M0 0 C5.28 0 10.56 0 16 0 C16 0.99 16 1.98 16 3 C12.04 3 8.08 3 4 3 C4 6.3 4 9.6 4 13 C7.96 13 11.92 13 16 13 C16 14.32 16 15.64 16 17 C12.04 17 8.08 17 4 17 C4 20.3 4 23.6 4 27 C8.29 27 12.58 27 17 27 C17 28.32 17 29.64 17 31 C11.39 31 5.78 31 0 31 C0 20.77 0 10.54 0 0 Z " fill="#B0B0B0" transform="translate(88,215)"/>
<path d="M0 0 C6.93 0 13.86 0 21 0 C21 1.32 21 2.64 21 4 C18.36 4 15.72 4 13 4 C13 13.24 13 22.48 13 32 C11.35 32 9.7 32 8 32 C8 22.76 8 13.52 8 4 C5.36 4 2.72 4 0 4 C0 2.68 0 1.36 0 0 Z " fill="#B5B5B5" transform="translate(30,214)"/>
<path d="M0 0 C8.625 -0.25 8.625 -0.25 12 2 C12.66305819 8.07803338 12.66305819 8.07803338 10.76953125 10.7109375 C8.47582874 12.38184661 7.1188461 12.30951505 4.3125 12.1875 C2.889375 12.125625 1.46625 12.06375 0 12 C0 8.04 0 4.08 0 0 Z " fill="#FBFBFB" transform="translate(355,260)"/>
<path d="M0 0 C8.625 -0.25 8.625 -0.25 12 2 C12.3125 5.5 12.3125 5.5 12 9 C10 11 10 11 7.6171875 11.1953125 C6.71226562 11.17210937 5.80734375 11.14890625 4.875 11.125 C2.461875 11.063125 2.461875 11.063125 0 11 C0 7.37 0 3.74 0 0 Z " fill="#FDFDFD" transform="translate(449,260)"/>
</svg>
