<?xml version="1.0" encoding="UTF-8"?>
<svg version="1.2" xmlns="http://www.w3.org/2000/svg" viewBox="0 0 512 512" baseProfile="tiny-ps">
  <title>The RCS Group Logo</title>
  <rect width="512" height="512" fill="#FEFEFE"/>
  <g transform="scale(1.024)">
    <path d="M0 0 C35.52182952 0 35.52182952 0 43.05859375 6.87890625 C43.74115234 7.71228516 43.74115234 7.71228516 44.4375 8.5625 C44.91058594 9.12066406 45.38367188 9.67882812 45.87109375 10.25390625 C48.98258658 15.06649205 48.77850909 21.51336451 48 27 C45.44371797 32.83787591 41.71317762 37.08263271 36 40 C34.34046072 40.36717608 32.67412189 40.70639346 31 41 C32.33231641 43.22977955 33.66586659 45.45880784 35 47.6875 C35.40210693 48.36071289 35.80421387 49.03392578 36.21850586 49.72753906 C38.23921492 53.10158882 40.27764251 56.46057209 42.37890625 59.78515625 C42.74693359 60.37014893 43.11496094 60.9551416 43.49414062 61.55786133 C44.51322406 63.17195348 45.53963323 64.78141349 46.56640625 66.390625 C48 69 48 69 48 72 C44.37 72 40.74 72 37 72 C36.34773438 70.81664062 35.69546875 69.63328125 35.0234375 68.4140625 C34.1410566 66.81746973 33.25821402 65.22113205 32.375 63.625 C31.9207666 62.80386719 31.4665332 61.98273438 30.99853516 61.13671875 C28.10608503 55.92969158 25.13114912 50.79431463 21.9609375 45.75 C21 44 21 44 21 42 C17.04 42 13.08 42 9 42 C9 51.9 9 61.8 9 72 C6.03 72 3.06 72 0 72 C0 48.24 0 24.48 0 0 Z " fill="#09093B" transform="translate(117,215)"/>
    <path d="M0 0 C5.12679562 3.66080014 8.93797018 7.68583855 11.578125 13.45703125 C11.578125 14.11703125 11.578125 14.77703125 11.578125 15.45703125 C7.77231016 16.02370589 4.36703741 16.20879959 0.578125 15.45703125 C-1.87564844 13.40093833 -3.6481505 11.17476928 -5.62109375 8.66015625 C-9.21279043 4.26597636 -12.48520862 3.66926866 -17.84375 3.08203125 C-26.56306589 2.66182326 -32.7618303 3.60699199 -39.421875 9.45703125 C-45.77314406 16.18456032 -46.92260359 23.84620086 -46.92163086 32.83911133 C-46.71323897 39.98979828 -44.87563918 45.74754046 -40.421875 51.45703125 C-33.50107199 57.48520137 -28.09488812 58.82841739 -19.0390625 58.7265625 C-14.14257005 58.36170507 -10.39902435 57.38164209 -6.421875 54.45703125 C-5.26012559 53.07034175 -4.13556576 51.65178793 -3.046875 50.20703125 C-0.892604 47.45689806 -0.03200296 46.5663079 3.45703125 45.94140625 C6.20730427 45.95545618 8.85216418 46.10211411 11.578125 46.45703125 C8.01577007 55.64171158 2.81568368 60.41924722 -5.546875 65.26953125 C-14.36643953 68.91239486 -26.45604913 69.02064095 -35.33203125 65.5 C-45.79804259 60.27677565 -52.24461121 53.24132754 -56.671875 42.39453125 C-59.19696941 32.29415362 -58.01669816 21.24351983 -53.16796875 12.08984375 C-48.42835702 4.41864657 -42.1243427 -1.80725661 -33.5234375 -4.8828125 C-21.7492708 -7.38890088 -10.21421357 -6.50744252 0 0 Z " fill="#0A093B" transform="translate(233.421875,219.54296875)"/>
    <path d="M0 0 C4.44303548 3.69050279 8.38201945 6.98584314 9.12109375 12.8984375 C8.97671875 13.7234375 8.83234375 14.5484375 8.68359375 15.3984375 C5.38359375 15.3984375 2.08359375 15.3984375 -1.31640625 15.3984375 C-1.56390625 14.4496875 -1.81140625 13.5009375 -2.06640625 12.5234375 C-2.99549519 9.33602409 -2.99549519 9.33602409 -5.31640625 8.0859375 C-5.97640625 7.8590625 -6.63640625 7.6321875 -7.31640625 7.3984375 C-7.97640625 7.0684375 -8.63640625 6.7384375 -9.31640625 6.3984375 C-11.25000211 6.24991906 -13.18982722 6.17712917 -15.12890625 6.1484375 C-16.16660156 6.12265625 -17.20429688 6.096875 -18.2734375 6.0703125 C-21.71500839 6.44141899 -23.55180698 7.35352745 -26.31640625 9.3984375 C-28.05707344 12.87977188 -27.75251958 16.59235754 -27.31640625 20.3984375 C-25.30789506 24.70239005 -22.57854594 25.86186633 -18.31640625 27.4609375 C-15.2960996 28.47308299 -12.26352884 29.41420095 -9.2109375 30.32421875 C-1.4480184 32.71507977 5.05759164 35.45943434 9.68359375 42.3984375 C10.57370742 49.77232656 10.79967242 56.75069153 6.171875 62.8515625 C1.49928544 67.70811228 -3.96895311 70.0573463 -10.61328125 70.734375 C-18.99266533 70.82916441 -26.6401618 70.50963575 -33.19140625 64.75 C-37.23031747 60.30331409 -39.31640625 56.50204779 -39.31640625 50.3984375 C-35.68640625 50.3984375 -32.05640625 50.3984375 -28.31640625 50.3984375 C-28.08953125 51.2853125 -27.86265625 52.1721875 -27.62890625 53.0859375 C-25.99417368 57.21169114 -25.04604975 58.9120085 -21.31640625 61.3984375 C-14.64108019 62.30676171 -8.90430116 62.48304033 -3.31640625 58.3984375 C-0.40816517 54.68792302 0.08025549 52.059213 -0.31640625 47.3984375 C-0.37828125 46.6559375 -0.44015625 45.9134375 -0.50390625 45.1484375 C-1.19600079 43.15799772 -1.19600079 43.15799772 -3.56274414 42.38818359 C-6.09229379 41.47899002 -8.62428983 40.62140162 -11.1875 39.8125 C-12.09177734 39.52117187 -12.99605469 39.22984375 -13.92773438 38.9296875 C-15.80604473 38.32738204 -17.68626035 37.730985 -19.56835938 37.140625 C-27.18610691 34.66824573 -32.5453723 32.11322603 -37.31640625 25.3984375 C-39.55708131 20.91708737 -38.91197523 15.24807059 -38.31640625 10.3984375 C-35.82270822 4.88468996 -31.59142669 1.26529644 -26.31640625 -1.6015625 C-18.88392408 -4.13614167 -6.70445788 -4.21081765 0 0 Z " fill="#0C0B3C" transform="translate(296.31640625,216.6015625)"/>
  </g>
</svg>
